<?xml version="1.0" standalone="no"?>
<!DOCTYPE svg PUBLIC "-//W3C//DTD SVG 20010904//EN"
 "http://www.w3.org/TR/2001/REC-SVG-20010904/DTD/svg10.dtd">
<svg version="1.0" xmlns="http://www.w3.org/2000/svg"
 width="2706.000000pt" height="2706.000000pt" viewBox="0 0 2706.000000 2706.000000"
 preserveAspectRatio="xMidYMid meet">
<metadata>
Created by potrace 1.14, written by Peter Selinger 2001-2017
</metadata>
<g transform="translate(0.000000,2706.000000) scale(0.100000,-0.100000)"
fill="#000000" stroke="none">
<path d="M23266 26974 c-10 -26 4 -37 25 -18 15 13 17 19 7 26 -19 11 -25 10
-32 -8z"/>
<path d="M12070 23709 c-30 -4 -63 -6 -73 -3 -10 3 -24 1 -31 -5 -11 -9 -57
-16 -171 -25 -22 -1 -58 -7 -80 -13 -22 -6 -67 -14 -100 -18 -61 -7 -238 -44
-310 -65 -22 -7 -57 -14 -78 -17 -20 -3 -40 -9 -43 -14 -3 -5 -16 -9 -29 -9
-13 0 -34 -4 -47 -9 -13 -5 -41 -14 -63 -20 -68 -17 -179 -51 -200 -60 -11 -5
-42 -17 -70 -26 -27 -9 -64 -23 -82 -31 -17 -8 -40 -14 -51 -14 -10 0 -39 -11
-64 -24 -25 -13 -79 -36 -119 -51 -82 -29 -117 -49 -138 -78 -8 -12 -21 -17
-33 -14 -11 3 -17 3 -14 0 10 -10 -78 -45 -101 -40 -14 3 -23 -1 -23 -8 0 -15
-28 -28 -41 -20 -5 4 -6 -1 -3 -9 4 -10 1 -17 -7 -18 -8 0 -18 -2 -24 -3 -5 0
-30 -12 -55 -25 -25 -12 -56 -24 -70 -25 -14 -1 -33 -3 -43 -3 -10 -1 -15 -7
-11 -13 3 -6 15 -9 25 -6 38 10 17 -4 -78 -52 -54 -27 -132 -67 -173 -89 -151
-82 -195 -102 -198 -92 -5 15 -22 12 -22 -3 0 -36 -148 -127 -158 -97 -6 15
-38 12 -53 -6 -10 -13 -10 -17 1 -24 11 -7 11 -11 1 -24 -8 -9 -20 -16 -28
-16 -8 0 -28 -9 -44 -21 -24 -17 -33 -18 -44 -9 -8 7 -15 11 -16 9 0 -2 -2
-12 -4 -22 -5 -29 -26 -47 -52 -47 -16 0 -42 -17 -74 -49 -28 -28 -62 -55 -77
-62 -15 -6 -34 -25 -42 -42 -10 -20 -28 -34 -53 -42 -20 -7 -57 -31 -82 -54
-24 -22 -53 -41 -64 -41 -11 0 -23 -5 -26 -10 -4 -6 -21 -17 -38 -25 -18 -8
-52 -30 -77 -49 -25 -19 -50 -35 -56 -35 -5 -1 -23 -14 -38 -30 -16 -16 -40
-35 -55 -41 -15 -6 -31 -20 -36 -33 -6 -12 -20 -27 -33 -33 -13 -6 -39 -26
-59 -43 -19 -17 -40 -31 -47 -31 -11 0 -163 -105 -206 -142 -21 -18 -89 -75
-128 -106 -18 -15 -46 -38 -61 -52 -16 -14 -52 -45 -81 -70 -29 -25 -58 -50
-64 -56 -6 -6 -22 -16 -34 -23 -12 -7 -21 -19 -20 -27 2 -10 -13 -21 -44 -32
-33 -12 -77 -44 -145 -108 -54 -50 -132 -119 -173 -153 -79 -65 -266 -238
-386 -356 -39 -38 -83 -77 -99 -85 -32 -17 -483 -469 -625 -626 -80 -88 -168
-186 -216 -237 -6 -7 -26 -32 -45 -57 -45 -60 -87 -107 -127 -143 -18 -17 -49
-56 -69 -86 -20 -31 -55 -76 -78 -101 -23 -25 -79 -93 -123 -152 -44 -58 -88
-115 -97 -125 -42 -47 -105 -133 -105 -142 0 -6 -9 -20 -20 -31 -10 -10 -55
-68 -99 -127 -44 -59 -99 -131 -121 -159 -22 -28 -40 -56 -40 -62 0 -6 -20
-34 -45 -63 -25 -29 -45 -57 -45 -63 0 -5 -9 -19 -19 -30 -11 -12 -27 -35 -38
-52 -62 -105 -92 -138 -135 -148 -24 -5 -44 -31 -103 -128 -5 -10 -22 -34 -36
-55 -43 -62 -114 -175 -144 -228 -16 -27 -59 -99 -96 -160 -72 -119 -122 -208
-165 -295 -15 -30 -38 -71 -50 -91 -32 -52 -205 -397 -252 -504 -22 -49 -57
-128 -79 -175 -60 -128 -73 -157 -73 -165 0 -3 -11 -30 -24 -58 -39 -83 -76
-176 -106 -262 -15 -44 -48 -138 -73 -210 -37 -110 -136 -415 -167 -520 -8
-30 -15 -63 -26 -119 -3 -16 -9 -37 -14 -46 -5 -9 -19 -64 -31 -121 -12 -57
-25 -122 -30 -144 -5 -22 -11 -60 -14 -85 -6 -50 -20 -129 -35 -204 -5 -26 -7
-52 -4 -57 3 -5 -1 -19 -7 -31 -9 -16 -13 -92 -15 -243 -1 -196 1 -241 26
-410 16 -104 32 -199 36 -210 15 -43 58 -131 81 -167 14 -20 22 -42 18 -47 -8
-15 86 -139 179 -235 42 -43 76 -82 76 -86 0 -4 16 -18 35 -31 19 -13 35 -26
35 -29 0 -3 14 -21 30 -40 17 -19 45 -60 62 -90 117 -207 341 -371 559 -410
72 -13 347 -6 362 9 6 6 21 11 34 11 13 0 31 4 41 9 9 5 42 16 72 26 30 9 64
20 75 25 11 5 43 16 70 25 92 31 289 117 335 146 8 5 26 15 40 21 92 46 258
150 310 195 8 7 71 50 140 95 69 45 130 87 137 93 6 5 27 20 45 33 18 12 49
34 68 47 19 13 52 36 72 49 20 14 59 45 86 68 51 45 79 67 138 108 20 14 63
48 96 75 68 56 129 105 172 138 16 12 65 54 110 92 45 39 90 77 99 85 10 8 36
32 58 53 22 20 43 37 47 37 4 0 38 29 76 64 38 35 78 70 88 77 11 8 37 30 57
49 21 19 85 78 142 130 106 96 298 280 328 314 9 10 40 41 70 70 30 28 79 77
110 110 31 32 92 95 136 141 44 45 123 128 175 185 52 57 102 110 110 119 9 9
49 54 90 101 41 47 80 90 87 95 6 6 35 42 63 80 29 39 58 75 64 80 6 6 27 30
46 55 19 24 43 53 53 65 56 64 137 165 137 171 0 5 13 22 29 39 30 32 264 340
295 390 11 16 23 34 28 40 34 39 253 340 314 433 42 61 80 112 85 112 5 0 9 5
9 12 0 13 106 172 127 189 7 6 13 16 13 21 0 6 10 24 23 41 12 17 27 39 32 49
39 66 143 229 165 258 15 19 35 51 46 70 10 19 24 42 30 50 14 17 114 191 114
197 0 2 16 30 37 61 20 31 56 95 80 142 25 47 57 108 72 135 130 233 162 292
171 305 5 8 35 65 66 125 31 61 73 139 94 175 20 36 70 133 109 215 71 147
133 270 165 330 20 38 96 205 96 211 0 3 11 29 24 57 13 29 42 90 63 137 43
93 226 551 268 670 14 41 31 83 37 94 5 10 20 53 33 95 23 75 119 352 132 381
3 8 7 20 9 25 1 6 9 27 18 47 9 21 23 64 32 95 8 32 17 65 19 73 3 8 10 38 16
65 6 28 16 55 21 62 5 7 7 17 3 22 -3 6 0 21 7 33 7 13 13 34 14 48 1 33 13
91 21 103 4 6 7 22 9 36 1 14 9 53 18 85 9 32 21 89 27 125 5 36 12 80 14 96
3 17 7 41 11 55 10 46 21 145 17 153 -2 4 0 40 6 80 6 39 12 122 14 182 2 61
9 120 15 132 7 12 29 27 49 34 21 6 43 15 48 19 10 7 56 21 85 25 8 1 67 10
130 19 63 10 128 23 145 31 27 12 28 15 10 21 -29 11 -72 9 -155 -8 -79 -17
-93 -16 -69 6 26 24 182 55 329 66 372 27 540 28 785 5 218 -21 423 -63 680
-142 44 -13 89 -28 100 -33 11 -5 38 -14 60 -21 101 -30 452 -205 463 -231 2
-4 8 -8 14 -8 6 0 49 -26 97 -57 104 -70 111 -76 176 -135 29 -27 56 -48 61
-48 13 0 327 -316 359 -360 13 -19 39 -65 58 -102 36 -71 47 -84 91 -113 15
-10 39 -35 52 -54 14 -20 38 -54 54 -76 17 -22 37 -53 45 -70 9 -16 42 -82 75
-145 33 -63 60 -122 60 -131 0 -8 5 -20 12 -27 16 -16 68 -153 68 -180 0 -12
4 -30 10 -40 16 -29 95 -523 105 -652 2 -36 9 -119 14 -185 5 -66 8 -282 5
-480 -5 -347 -7 -412 -18 -575 -3 -41 -2 -100 3 -131 4 -36 3 -75 -5 -110 -7
-30 -13 -74 -14 -99 0 -40 -32 -275 -44 -325 -28 -114 -36 -155 -34 -162 1 -4
-3 -24 -10 -43 -6 -19 -18 -75 -26 -125 -9 -49 -23 -117 -32 -150 -15 -58 -31
-134 -39 -185 -8 -52 -43 -207 -68 -300 -8 -30 -18 -77 -22 -105 -4 -27 -10
-54 -13 -60 -4 -5 -13 -35 -19 -65 -7 -30 -15 -59 -16 -65 -2 -5 -7 -23 -11
-40 -5 -16 -14 -48 -21 -70 -7 -22 -22 -71 -34 -110 -11 -38 -30 -101 -42
-140 -11 -38 -22 -77 -24 -85 -2 -8 -27 -87 -55 -175 -29 -88 -56 -173 -60
-190 -5 -16 -20 -63 -34 -102 -14 -40 -26 -84 -26 -98 0 -14 -6 -38 -14 -53
-7 -15 -30 -74 -49 -132 -53 -154 -163 -459 -262 -725 -37 -100 -227 -578
-252 -635 -15 -34 -25 -57 -57 -133 -9 -21 -16 -42 -16 -48 0 -5 -9 -29 -20
-51 -11 -23 -20 -46 -20 -51 0 -5 -12 -32 -26 -61 -14 -28 -26 -52 -25 -53 0
-3 -27 -71 -44 -108 -7 -16 -21 -50 -30 -75 -9 -25 -20 -52 -25 -60 -4 -8 -31
-71 -60 -140 -29 -69 -63 -149 -76 -178 -13 -29 -24 -55 -24 -57 0 -3 -15 -37
-34 -77 -19 -40 -51 -113 -71 -161 -20 -49 -49 -115 -66 -147 -16 -31 -29 -60
-29 -64 0 -4 -18 -45 -40 -92 -22 -47 -40 -88 -40 -90 0 -3 -19 -44 -41 -92
-39 -81 -61 -129 -111 -242 -26 -59 -65 -142 -123 -265 -39 -82 -115 -249
-155 -340 -109 -250 -620 -1280 -657 -1327 -6 -7 -14 -23 -17 -35 -4 -13 -32
-66 -62 -119 -30 -52 -54 -98 -54 -101 0 -2 -17 -35 -38 -71 -22 -37 -57 -101
-79 -142 -48 -91 -130 -240 -277 -500 -60 -107 -116 -207 -123 -222 -8 -15
-18 -30 -24 -33 -5 -4 -9 -15 -9 -25 0 -10 -4 -20 -8 -22 -4 -1 -26 -34 -47
-73 -22 -38 -44 -77 -50 -86 -5 -9 -25 -43 -43 -75 -18 -32 -48 -84 -67 -114
-19 -30 -38 -62 -42 -70 -4 -8 -34 -60 -68 -115 -34 -55 -64 -107 -68 -115 -4
-8 -25 -44 -47 -79 -22 -34 -40 -65 -40 -67 0 -2 -20 -35 -45 -74 -25 -39 -45
-72 -45 -74 0 -5 -66 -107 -78 -122 -5 -6 -12 -20 -16 -31 -3 -10 -14 -28 -24
-39 -9 -10 -30 -44 -46 -74 -16 -30 -39 -68 -51 -85 -12 -16 -25 -37 -29 -45
-10 -22 -28 -51 -53 -87 -13 -17 -23 -33 -23 -36 0 -3 -33 -55 -72 -115 -40
-61 -95 -147 -123 -192 -27 -44 -65 -100 -82 -123 -18 -23 -33 -46 -33 -50 0
-4 -17 -31 -38 -60 -20 -29 -42 -59 -47 -69 -13 -21 -102 -155 -128 -193 -12
-16 -45 -66 -74 -110 -28 -44 -56 -84 -60 -90 -5 -5 -39 -55 -75 -111 -37 -55
-74 -106 -82 -113 -9 -8 -16 -18 -16 -24 0 -5 -12 -26 -27 -45 -16 -20 -35
-48 -43 -62 -8 -15 -48 -72 -88 -126 -40 -54 -101 -139 -137 -189 -35 -49
-106 -148 -157 -218 -51 -71 -97 -136 -103 -145 -14 -23 -22 -33 -51 -67 -50
-58 -114 -168 -71 -123 23 25 92 112 116 147 13 20 28 39 33 42 5 3 55 69 111
147 56 78 157 217 223 309 67 93 121 171 120 175 0 3 9 17 20 30 12 13 52 68
90 123 38 55 86 125 107 155 50 72 127 186 152 225 20 31 185 281 212 320 42
63 131 198 161 245 19 30 62 95 94 143 32 49 58 90 58 93 0 3 35 57 77 122 43
64 82 126 88 137 6 11 24 40 40 65 16 25 34 52 40 62 26 43 132 215 152 247
13 20 26 43 30 51 7 13 54 90 151 248 12 20 33 57 47 82 14 25 33 57 43 72 9
14 35 57 57 95 22 37 44 76 50 85 5 9 17 29 26 45 55 100 85 152 104 183 27
44 111 192 189 335 6 11 16 27 22 35 6 8 34 58 62 111 28 53 72 134 97 180 53
94 82 148 145 264 23 44 57 107 75 140 17 33 57 107 87 165 31 58 82 155 114
215 76 144 382 755 379 755 -2 0 14 32 36 71 21 40 39 73 39 75 0 2 29 64 64
137 68 141 133 278 186 392 18 39 47 102 65 140 34 71 78 167 133 285 32 70
66 147 87 195 7 17 23 53 35 80 13 28 34 75 47 105 14 30 35 78 48 105 13 28
42 93 65 145 23 52 52 118 65 145 66 143 85 187 85 195 0 4 15 41 34 82 19 40
57 129 86 198 72 173 80 191 98 225 9 17 15 31 14 32 -1 2 10 29 24 60 14 32
35 81 46 108 11 28 25 64 33 80 7 17 29 73 50 125 128 326 178 449 194 485 11
22 42 103 71 180 28 77 55 149 60 160 29 67 50 119 50 127 0 14 42 109 47 105
4 -4 -77 -238 -127 -367 -16 -41 -45 -118 -66 -170 -20 -52 -47 -124 -60 -160
-13 -36 -28 -74 -33 -85 -11 -24 -74 -185 -108 -275 -14 -36 -29 -75 -34 -87
-11 -28 -11 -28 -95 -223 -168 -391 -224 -520 -256 -590 -20 -41 -39 -86 -43
-100 -7 -24 -44 -106 -105 -235 -15 -33 -54 -121 -85 -195 -32 -74 -75 -173
-97 -220 -22 -47 -50 -107 -63 -135 -13 -27 -35 -77 -50 -110 -15 -33 -37 -80
-49 -105 -13 -25 -23 -48 -24 -52 -2 -7 -19 -45 -116 -250 -20 -43 -52 -113
-72 -155 -86 -186 -140 -295 -370 -758 -135 -269 -269 -535 -299 -590 -31 -55
-60 -109 -65 -120 -6 -11 -31 -58 -56 -105 -25 -47 -66 -125 -90 -175 -25 -49
-49 -97 -54 -105 -5 -8 -18 -33 -29 -55 -11 -22 -36 -65 -56 -95 -19 -30 -35
-57 -35 -61 0 -4 -16 -36 -36 -71 -20 -34 -54 -97 -77 -138 -22 -41 -60 -110
-84 -154 -24 -43 -43 -82 -43 -86 0 -4 -7 -13 -15 -20 -9 -7 -25 -32 -36 -54
-21 -43 -24 -47 -80 -141 -20 -33 -53 -91 -74 -130 -49 -90 -68 -123 -80 -143
-6 -9 -35 -59 -65 -110 -30 -51 -62 -104 -70 -116 -12 -20 -49 -81 -105 -178
-5 -10 -33 -55 -62 -100 -59 -96 -85 -139 -112 -189 -11 -19 -27 -41 -35 -48
-9 -8 -16 -18 -16 -23 0 -6 -10 -24 -22 -41 -13 -18 -31 -46 -40 -64 -10 -18
-39 -65 -65 -105 -27 -40 -50 -77 -53 -83 -3 -5 -18 -30 -34 -55 -83 -128
-124 -191 -164 -255 -25 -38 -58 -89 -73 -112 -16 -23 -29 -43 -29 -46 0 -6
-203 -312 -232 -351 -13 -16 -27 -37 -33 -47 -5 -10 -37 -57 -70 -105 -33 -48
-64 -95 -70 -105 -25 -41 -149 -225 -156 -229 -4 -3 -40 -54 -81 -115 -41 -60
-103 -150 -138 -200 -35 -49 -77 -110 -94 -135 -40 -59 -583 -779 -641 -850
-219 -266 -431 -515 -514 -604 -42 -45 -114 -124 -161 -176 -47 -51 -92 -101
-101 -110 -8 -9 -32 -38 -53 -66 -21 -27 -54 -67 -74 -89 -32 -34 -62 -84 -62
-101 0 -3 9 -2 20 1 34 11 23 -17 -26 -68 -34 -36 -44 -52 -39 -68 4 -11 9
-18 12 -15 3 3 14 1 25 -5 15 -8 17 -13 8 -24 -8 -9 -8 -20 -2 -31 5 -10 6
-32 1 -55 -5 -21 -7 -53 -5 -71 3 -28 8 -34 32 -36 18 -2 47 -22 79 -53 49
-48 94 -64 110 -39 3 5 16 10 27 10 25 0 194 171 445 450 55 61 158 184 176
209 9 13 60 70 114 125 130 134 195 211 425 511 98 128 161 205 245 298 29 31
120 148 202 260 83 111 157 210 165 219 9 10 27 36 41 58 14 22 46 67 70 99
25 33 45 64 45 70 0 6 3 11 8 11 4 0 32 37 62 83 30 45 66 98 81 117 15 19 37
55 50 79 12 24 72 110 133 192 112 148 206 289 206 306 0 6 9 18 20 28 11 10
20 23 20 29 0 6 9 22 20 36 21 27 25 40 12 40 -5 0 -31 -33 -58 -72 -27 -40
-76 -109 -110 -153 -65 -86 -166 -235 -204 -300 -13 -22 -37 -56 -52 -75 -42
-50 -91 -114 -108 -140 -8 -13 -32 -46 -52 -74 -20 -28 -46 -64 -57 -81 -58
-85 -277 -377 -318 -423 -25 -30 -67 -82 -92 -116 -41 -55 -84 -109 -186 -231
-55 -66 -234 -288 -340 -422 -199 -252 -325 -387 -325 -349 0 9 9 21 20 28 11
7 20 16 20 21 0 8 100 130 166 204 16 17 63 73 104 124 41 50 91 110 111 133
19 23 58 69 85 104 27 35 63 80 79 101 17 21 72 94 124 162 52 68 97 126 100
129 4 3 20 23 36 45 16 22 37 49 47 60 20 23 37 47 176 232 90 122 236 321
276 378 8 11 30 43 50 70 53 76 162 234 199 289 6 10 26 37 43 60 16 22 44 61
61 86 84 125 153 226 160 235 16 20 268 400 272 409 2 6 38 62 80 126 42 63
81 122 86 131 6 9 19 29 29 45 51 77 106 164 106 169 0 6 42 55 76 89 22 23
110 150 133 194 8 15 33 56 56 92 23 36 52 85 65 110 12 25 26 47 29 50 11 8
55 73 75 110 10 19 25 42 33 51 7 9 22 32 32 50 33 62 89 154 105 171 9 10 16
24 16 30 1 7 14 31 30 53 16 22 49 81 74 130 48 95 66 126 79 136 4 3 17 32
28 65 29 82 45 116 104 214 28 47 59 101 69 120 9 19 23 44 29 55 7 11 32 56
56 100 73 133 103 188 124 225 11 19 36 67 57 105 21 39 48 88 60 110 27 48
73 135 155 294 33 64 68 130 77 146 45 81 198 403 198 417 0 9 6 18 13 21 18
7 47 -11 41 -26 -2 -7 4 -22 16 -32 11 -10 20 -31 20 -46 0 -21 10 -34 43 -57
23 -16 41 -34 40 -40 -4 -16 36 -91 54 -100 9 -6 16 -29 18 -64 3 -56 27 -118
45 -118 6 0 10 -7 10 -15 0 -8 12 -17 28 -21 15 -3 34 -8 42 -10 9 -2 25 12
40 33 14 20 41 53 60 73 19 19 50 53 68 75 18 22 52 53 75 68 23 16 87 70 141
120 138 128 561 554 587 592 24 34 40 44 236 145 192 99 325 130 568 132 146
1 334 -25 426 -58 24 -9 53 -17 64 -18 79 -11 331 -121 455 -200 109 -70 180
-119 180 -126 0 -5 14 -17 31 -27 46 -30 269 -243 269 -258 0 -7 6 -15 13 -18
8 -3 36 -39 63 -80 27 -41 63 -85 80 -98 18 -13 43 -40 56 -59 12 -19 26 -39
31 -45 17 -22 55 -83 87 -140 19 -33 48 -80 66 -105 39 -55 85 -155 109 -235
10 -33 21 -64 25 -70 4 -5 10 -21 13 -35 3 -14 11 -43 17 -65 14 -49 26 -100
42 -185 7 -36 16 -70 20 -75 3 -6 10 -40 14 -75 4 -36 10 -67 14 -70 8 -6 69
-433 81 -565 12 -150 37 -468 37 -485 0 -15 8 -162 17 -315 9 -150 15 -270 21
-440 15 -441 23 -629 35 -765 6 -69 12 -150 14 -180 5 -86 55 -443 65 -465 5
-11 14 -54 20 -95 6 -41 15 -88 20 -105 5 -16 16 -66 26 -110 9 -44 27 -109
39 -145 12 -36 28 -89 35 -118 6 -28 16 -52 21 -52 5 0 9 -13 9 -29 0 -17 5
-33 10 -36 6 -3 10 -15 10 -27 0 -11 6 -34 14 -51 47 -103 66 -148 66 -154 0
-12 290 -605 300 -613 4 -3 22 -32 40 -65 91 -161 330 -434 479 -549 137 -105
220 -162 230 -159 3 1 13 -4 21 -11 29 -25 126 -74 215 -110 50 -20 99 -41
110 -46 35 -17 199 -68 232 -73 17 -3 36 -7 40 -10 5 -3 28 -8 53 -12 25 -4
47 -8 51 -11 3 -2 35 -6 70 -10 35 -3 80 -7 99 -9 126 -14 414 -19 535 -11
183 14 237 19 380 41 181 27 265 44 379 74 44 12 89 21 102 21 13 0 26 5 29
10 3 6 16 10 27 10 23 0 81 17 110 31 10 5 26 9 36 9 10 0 22 4 28 9 5 4 38
16 74 25 36 9 76 21 90 25 14 5 45 14 70 21 25 6 53 16 62 21 10 5 26 9 36 9
10 0 22 4 28 8 5 4 36 16 69 26 33 10 74 24 90 31 17 7 64 25 105 40 41 15 98
37 125 50 28 12 73 30 100 40 28 10 55 21 60 26 6 4 33 13 59 19 62 14 168 59
218 92 14 10 33 18 41 18 9 0 46 16 84 35 37 19 71 35 75 35 7 0 79 31 173 76
28 12 93 43 147 68 53 24 121 62 151 85 29 23 60 41 67 41 7 0 21 6 29 13 18
15 247 147 256 147 2 0 40 25 82 55 87 62 110 77 177 117 26 15 50 38 55 50 9
22 68 82 143 143 20 17 39 40 42 52 6 19 3 21 -37 21 -24 -1 -50 3 -58 8 -32
19 -87 4 -225 -63 -95 -46 -188 -70 -150 -39 11 9 26 16 33 16 7 0 13 4 13 9
0 4 20 16 44 25 46 18 82 49 72 64 -12 20 -199 -41 -226 -74 -7 -7 -18 -14
-24 -14 -11 0 -65 -26 -171 -83 -28 -14 -71 -36 -97 -47 -27 -12 -50 -26 -53
-30 -8 -12 -156 -81 -167 -78 -5 2 32 23 81 47 50 24 91 48 91 54 0 13 -37 2
-121 -36 -41 -19 -90 -40 -109 -47 -19 -7 -53 -20 -75 -30 -22 -10 -88 -38
-146 -64 -58 -25 -119 -53 -135 -61 -16 -8 -32 -15 -36 -15 -4 0 -31 -11 -60
-24 -46 -20 -76 -32 -163 -66 -11 -4 -42 -16 -70 -25 -27 -9 -64 -23 -82 -31
-17 -8 -36 -14 -42 -14 -6 0 -19 -4 -29 -9 -15 -8 -71 -30 -127 -51 -67 -24
-93 -33 -115 -37 -14 -3 -29 -9 -35 -13 -5 -3 -50 -19 -100 -35 -49 -15 -99
-31 -110 -36 -51 -21 -162 -53 -178 -50 -10 1 -25 -3 -33 -10 -13 -10 -84 -32
-154 -46 -14 -2 -34 -8 -45 -13 -11 -5 -36 -11 -55 -13 -31 -5 -114 -25 -235
-59 -77 -21 -101 -27 -175 -42 -111 -24 -406 -64 -473 -65 -33 -1 -63 -4 -68
-7 -11 -7 -333 -6 -434 1 -105 7 -143 14 -220 39 -38 13 -104 34 -145 46 -187
57 -430 221 -604 408 -22 23 -46 42 -53 42 -7 0 -13 6 -13 13 0 7 -26 44 -58
83 -96 116 -216 309 -297 479 -16 33 -37 77 -47 98 -10 22 -18 47 -18 56 0 9
-4 21 -9 26 -10 12 -41 108 -41 127 0 8 -6 20 -12 26 -7 7 -18 34 -25 60 -6
26 -19 72 -28 102 -15 49 -29 108 -50 205 -4 17 -15 59 -26 95 -10 36 -19 81
-20 100 -1 19 -5 44 -10 55 -10 25 -57 372 -64 480 -3 44 -7 87 -10 95 -4 16
-15 226 -20 365 -12 405 -22 675 -30 820 -3 44 -7 154 -10 245 -3 91 -10 224
-17 295 -6 72 -11 144 -10 160 0 17 -6 72 -13 124 -8 52 -12 98 -9 103 3 4 0
34 -5 65 -6 32 -22 146 -36 253 -14 107 -30 209 -35 225 -5 17 -19 68 -30 115
-12 47 -26 101 -31 120 -6 19 -13 49 -16 65 -3 17 -9 35 -13 40 -4 6 -13 37
-20 70 -13 68 -28 122 -41 147 -5 10 -9 26 -9 36 0 10 -4 22 -9 27 -5 6 -16
37 -25 70 -16 56 -25 80 -84 206 -12 25 -22 53 -22 62 0 9 -4 18 -9 22 -5 3
-12 19 -16 35 -4 17 -11 30 -16 30 -5 0 -9 7 -9 16 0 17 -37 95 -75 159 -13
22 -32 55 -41 73 -10 17 -21 32 -26 32 -4 0 -8 6 -8 13 0 20 -224 351 -265
392 -11 11 -33 38 -50 60 -39 52 -179 194 -280 281 -201 176 -393 297 -627
398 -21 9 -53 23 -72 31 -19 8 -37 15 -41 15 -4 0 -23 7 -43 16 -21 9 -46 20
-57 25 -32 13 -109 40 -125 43 -8 1 -22 5 -30 8 -28 11 -159 46 -200 54 -8 1
-33 7 -55 14 -38 10 -176 38 -222 45 -59 9 -56 25 20 106 103 111 121 131 137
154 8 12 44 55 80 95 89 100 104 115 195 211 116 122 172 185 236 264 32 39
81 95 109 125 28 30 69 75 90 100 21 25 84 98 139 162 56 64 101 121 101 127
0 6 4 11 8 11 4 0 32 30 62 66 30 37 66 79 80 94 14 16 53 59 86 97 34 37 83
96 109 131 26 34 59 75 74 91 14 16 42 50 61 75 57 77 73 96 122 155 26 31 48
60 48 65 0 4 30 43 68 86 116 133 152 178 152 188 0 5 7 15 15 22 35 29 259
315 292 373 6 12 24 34 40 50 43 45 113 141 113 154 0 6 8 18 18 25 19 13 122
150 252 333 41 59 94 129 116 158 23 29 81 111 129 182 48 72 95 139 105 150
10 11 26 34 37 52 10 17 59 91 108 164 50 74 92 138 94 144 2 5 15 24 28 41
12 17 23 36 23 41 0 6 6 13 13 16 7 2 23 25 35 51 13 25 27 48 31 51 5 3 21
28 36 57 15 29 41 69 56 88 16 19 29 38 29 43 0 5 11 23 25 41 14 18 25 38 25
43 0 6 6 16 14 22 8 7 27 36 42 64 15 29 45 79 68 112 22 33 48 73 56 90 9 16
31 55 50 85 20 30 42 67 49 83 8 15 18 27 22 27 4 0 10 12 14 28 3 15 14 36
24 47 16 17 65 103 108 186 7 15 20 32 28 39 8 7 15 16 15 21 0 4 43 84 96
176 54 92 116 206 140 251 24 46 47 89 52 95 5 7 39 68 74 137 36 69 87 166
113 215 90 168 157 299 349 680 176 349 225 451 294 605 13 30 36 82 52 115
33 71 58 127 95 215 34 78 71 161 97 215 10 22 35 81 55 130 19 50 48 118 64
152 16 34 29 64 29 66 0 3 7 21 15 41 8 20 16 39 16 43 0 5 7 19 15 33 7 14
23 53 34 88 11 35 25 71 30 80 5 9 13 31 18 47 6 17 22 62 36 100 15 39 29 82
31 97 3 14 14 47 25 73 11 26 22 61 25 78 3 16 9 35 12 40 3 5 9 23 13 41 5
17 25 87 45 156 47 161 61 219 94 415 26 148 31 376 11 453 -8 28 -17 52 -22
52 -4 0 -8 5 -8 11 0 55 -225 212 -380 265 -30 10 -57 22 -60 25 -12 14 -227
79 -286 86 -56 7 -66 -10 -80 -132 -3 -27 -7 -52 -9 -55 -6 -11 16 -127 31
-161 9 -20 15 -42 13 -50 -3 -19 6 -38 74 -158 33 -58 70 -113 83 -124 13 -10
24 -27 24 -37 0 -10 4 -21 9 -25 17 -10 33 -112 22 -134 -11 -19 -24 -64 -61
-206 -10 -38 -26 -95 -35 -125 -10 -30 -29 -91 -42 -135 -14 -44 -29 -89 -33
-100 -5 -11 -18 -42 -29 -69 -12 -27 -21 -54 -21 -62 0 -13 -42 -120 -66 -167
-8 -16 -14 -33 -14 -38 0 -7 -70 -193 -100 -264 -17 -41 -38 -91 -58 -135 -52
-116 -102 -250 -102 -274 0 -15 -4 -34 -10 -44 -5 -9 -24 -48 -41 -87 -66
-150 -613 -1253 -673 -1360 -47 -83 -139 -250 -189 -345 -19 -36 -56 -105 -84
-155 -28 -49 -71 -130 -98 -180 -26 -49 -53 -97 -59 -105 -7 -8 -25 -40 -40
-70 -31 -63 -42 -82 -73 -127 -13 -17 -23 -34 -23 -37 0 -3 -12 -24 -28 -48
-36 -57 -44 -71 -92 -153 -22 -38 -51 -88 -65 -110 -14 -22 -28 -47 -32 -55
-4 -8 -39 -66 -78 -130 -39 -64 -74 -122 -78 -130 -4 -8 -20 -34 -35 -57 -15
-24 -57 -91 -95 -150 -37 -60 -94 -148 -127 -198 -33 -49 -63 -97 -67 -105 -3
-8 -17 -29 -30 -46 -13 -17 -23 -35 -23 -39 0 -5 -9 -18 -19 -29 -11 -12 -27
-35 -38 -52 -10 -16 -45 -70 -78 -119 -33 -48 -65 -95 -70 -104 -40 -63 -96
-144 -131 -191 -22 -30 -43 -60 -45 -66 -5 -12 -74 -110 -201 -284 -49 -65
-88 -122 -88 -125 0 -4 -26 -41 -59 -83 -60 -80 -121 -160 -181 -242 -19 -26
-98 -130 -175 -230 -77 -100 -150 -196 -162 -213 -12 -17 -26 -33 -30 -36 -16
-11 -143 -181 -143 -191 0 -16 10 -12 31 13 10 12 18 17 19 11 0 -6 -19 -33
-42 -59 -24 -27 -42 -51 -41 -54 4 -13 -61 -106 -110 -155 -57 -59 -191 -219
-276 -330 -30 -39 -70 -89 -90 -112 -40 -45 -145 -163 -176 -198 -11 -12 -40
-47 -65 -76 -25 -30 -81 -95 -125 -144 -43 -50 -88 -102 -100 -115 -11 -13
-34 -40 -51 -60 -18 -20 -64 -74 -104 -121 -40 -47 -79 -89 -85 -95 -7 -5 -47
-50 -90 -100 -43 -49 -83 -95 -89 -101 -6 -6 -33 -37 -61 -68 -27 -32 -59 -68
-70 -81 -11 -12 -47 -52 -80 -90 -33 -37 -74 -81 -90 -99 -17 -17 -55 -60 -85
-96 -48 -57 -206 -231 -325 -359 -67 -72 -88 -95 -143 -157 -30 -33 -70 -69
-90 -80 -20 -10 -77 -43 -127 -73 -49 -29 -100 -57 -112 -62 -13 -5 -29 -13
-36 -19 -6 -6 -43 -30 -80 -55 -38 -25 -95 -66 -128 -92 -33 -27 -73 -57 -88
-69 -16 -11 -51 -41 -77 -66 -27 -25 -69 -63 -93 -85 -24 -21 -51 -46 -60 -57
-9 -10 -45 -49 -81 -87 -111 -116 -168 -183 -261 -305 -49 -64 -98 -123 -108
-131 -11 -7 -21 -23 -23 -35 -2 -13 -14 -28 -27 -35 -14 -6 -32 -27 -41 -45
-9 -18 -39 -73 -67 -123 -27 -49 -75 -137 -105 -195 -56 -105 -100 -189 -165
-310 -20 -36 -63 -117 -96 -180 -33 -63 -63 -119 -67 -125 -4 -5 -29 -50 -55
-100 -26 -49 -51 -94 -55 -100 -4 -5 -31 -55 -60 -110 -29 -55 -64 -117 -77
-137 -13 -21 -23 -40 -23 -43 0 -2 -17 -33 -38 -67 -21 -35 -41 -70 -45 -78
-4 -8 -15 -28 -25 -45 -10 -16 -30 -50 -44 -75 -25 -44 -113 -196 -170 -295
-16 -27 -47 -79 -69 -115 -21 -36 -44 -74 -49 -85 -6 -11 -19 -33 -30 -50 -11
-16 -26 -42 -35 -57 -8 -15 -33 -53 -55 -84 -22 -32 -40 -61 -40 -65 0 -4 -22
-42 -50 -83 -27 -42 -50 -78 -50 -82 0 -3 -25 -45 -56 -93 -30 -47 -89 -140
-129 -206 -41 -66 -100 -160 -131 -210 -32 -49 -78 -121 -102 -160 -69 -107
-101 -157 -208 -320 -55 -82 -101 -154 -104 -160 -3 -5 -28 -44 -56 -86 -29
-42 -53 -81 -55 -86 -2 -5 -28 -42 -57 -83 -29 -41 -94 -136 -143 -210 -124
-184 -136 -202 -153 -225 -48 -63 -106 -146 -106 -151 0 -6 -91 -134 -182
-256 -23 -32 -46 -58 -50 -58 -5 0 -8 -4 -8 -9 0 -13 -106 -170 -135 -201 -13
-14 -36 -44 -52 -67 -15 -23 -40 -56 -55 -75 -15 -18 -57 -73 -94 -123 -37
-49 -70 -92 -74 -95 -3 -3 -26 -31 -49 -62 -24 -32 -47 -58 -51 -58 -4 0 -12
-10 -17 -23 -13 -27 -112 -151 -125 -156 -6 -2 -5 7 2 19 15 28 4 40 -14 14
-12 -17 -96 -119 -165 -200 -14 -17 -46 -57 -71 -87 -25 -31 -53 -59 -62 -62
-9 -3 -20 -15 -23 -26 -9 -27 -16 -19 -8 9 3 12 12 22 20 22 8 0 12 4 9 9 -4
5 0 12 6 14 10 4 9 8 -2 16 -10 7 -11 11 -3 11 7 0 19 15 26 32 8 18 24 44 36
58 11 14 55 70 96 125 42 55 97 127 123 160 27 33 140 182 252 330 112 149
209 275 216 280 10 9 58 79 104 150 8 13 52 75 97 137 197 271 223 308 223
317 0 5 20 34 45 64 25 31 45 59 45 62 0 4 14 24 30 45 17 21 30 41 30 44 0 4
13 21 30 39 16 18 30 37 30 44 0 6 11 25 25 41 14 17 25 34 25 38 1 5 14 25
30 44 17 19 30 40 30 47 0 6 6 16 13 20 8 4 20 20 28 34 8 15 64 100 124 190
61 90 112 168 114 174 2 5 17 26 32 46 16 20 29 40 29 44 0 4 12 24 28 44 15
20 32 45 39 56 21 34 146 233 175 278 15 23 37 58 48 77 11 19 24 42 30 50 46
73 110 183 110 190 0 4 7 13 15 20 8 7 21 24 28 39 22 43 41 75 58 96 13 17
71 114 113 190 6 11 20 34 31 50 12 17 30 47 40 68 11 20 30 48 42 62 13 13
32 41 44 62 11 21 34 58 50 83 16 25 32 52 36 60 3 8 10 17 14 20 3 3 16 21
28 40 l22 35 -7 -30 c-4 -16 -10 -32 -14 -35 -13 -9 -32 -52 -26 -57 8 -8 46
27 46 43 0 7 4 14 8 16 7 3 122 186 122 194 0 3 15 27 34 55 19 27 38 58 41
69 4 11 11 20 16 20 5 0 9 7 9 16 0 8 5 12 10 9 6 -3 10 1 10 9 0 23 36 77 45
68 4 -4 5 1 2 11 -5 14 -2 20 13 24 11 3 20 12 20 19 0 8 5 14 10 14 6 0 10
11 10 24 0 13 6 26 14 29 8 3 20 22 27 41 7 20 17 36 21 36 4 0 8 9 8 20 0 11
4 20 8 20 8 0 42 69 42 84 0 3 20 40 45 80 25 41 45 77 45 80 0 3 16 30 35 60
19 30 35 61 35 69 0 8 7 20 15 27 8 7 15 17 15 22 0 6 24 53 54 107 29 53 80
146 111 206 32 61 73 137 91 170 42 76 120 238 130 268 4 12 9 24 13 27 9 8
51 99 51 113 0 6 9 23 20 37 11 14 20 35 20 47 0 12 4 24 9 27 5 3 11 18 14
33 l5 27 -19 -25 c-10 -13 -24 -37 -31 -54 -6 -16 -23 -48 -37 -70 -14 -22
-46 -80 -71 -130 -26 -49 -63 -119 -82 -155 -19 -36 -66 -123 -103 -195 -86
-166 -146 -277 -155 -290 -4 -5 -31 -55 -60 -110 -29 -55 -56 -104 -60 -110
-4 -5 -25 -44 -47 -85 -22 -41 -50 -91 -61 -110 -12 -19 -31 -53 -42 -75 -101
-191 -181 -317 -194 -305 -2 3 34 73 81 155 47 83 108 193 136 245 27 52 65
124 85 160 19 36 56 106 82 155 25 50 53 101 62 115 9 14 41 72 72 130 31 58
68 128 83 155 15 28 28 52 28 55 7 24 308 635 345 700 12 20 164 334 165 340
1 6 122 247 135 270 8 14 87 179 178 370 22 47 65 138 96 203 31 65 56 120 56
122 0 4 17 41 100 220 58 123 89 192 113 250 14 33 44 99 66 147 23 48 41 90
41 94 0 4 12 32 26 63 14 31 32 70 39 86 7 17 22 51 34 77 11 26 21 50 21 52
0 4 19 48 82 186 11 25 26 61 33 80 7 19 24 60 38 90 14 30 41 96 61 145 20
50 43 104 51 120 19 42 108 258 135 330 12 33 49 125 81 205 66 166 134 341
174 450 15 41 41 109 56 150 89 237 159 430 159 439 0 6 4 19 10 29 11 21 56
148 110 312 22 69 45 134 50 145 5 11 12 31 15 45 8 32 66 221 100 325 27 81
42 140 49 185 2 14 12 45 21 70 9 25 19 52 21 60 2 8 11 40 20 70 31 108 36
125 41 155 2 17 8 39 13 50 24 58 32 86 27 92 -4 3 0 17 7 32 8 14 17 53 21
86 4 33 11 65 15 70 7 9 22 71 25 106 1 9 5 21 9 27 6 10 18 61 32 137 3 17
10 34 15 40 29 30 -16 -253 -66 -420 -9 -27 -20 -70 -24 -95 -11 -54 -48 -187
-61 -215 -5 -11 -12 -40 -16 -65 -3 -25 -12 -56 -19 -70 -7 -14 -16 -41 -20
-60 -3 -19 -18 -73 -32 -120 -52 -172 -115 -376 -126 -405 -6 -16 -12 -34 -14
-40 -3 -15 -43 -135 -58 -175 -8 -19 -24 -69 -35 -110 -12 -41 -26 -84 -30
-95 -5 -11 -16 -45 -25 -75 -9 -30 -33 -95 -52 -145 -54 -135 -72 -185 -93
-245 -31 -92 -69 -191 -85 -223 -8 -17 -15 -34 -15 -39 0 -9 -34 -99 -65 -173
-7 -16 -27 -68 -45 -115 -17 -47 -38 -98 -45 -115 -7 -16 -20 -48 -28 -70 -9
-22 -27 -70 -41 -107 -14 -36 -26 -70 -26 -75 -1 -4 -9 -26 -20 -48 -11 -22
-19 -43 -20 -47 0 -4 -11 -32 -25 -62 -14 -30 -25 -58 -25 -61 0 -7 -25 -67
-40 -96 -4 -8 -21 -49 -38 -91 -27 -67 -158 -370 -217 -503 -12 -27 -53 -122
-90 -210 -66 -157 -76 -180 -150 -340 -20 -44 -48 -107 -62 -140 -14 -33 -38
-89 -55 -125 -16 -36 -47 -103 -68 -150 -21 -47 -54 -119 -73 -160 -19 -42
-58 -127 -87 -190 -105 -230 -150 -328 -250 -535 -60 -125 -80 -185 -61 -185
6 0 11 6 11 13 0 7 21 53 46 102 116 224 285 568 344 700 12 28 39 86 60 130
32 66 71 153 140 310 4 11 24 54 43 95 80 170 106 227 120 265 8 22 33 78 55
125 66 139 282 641 282 654 0 7 4 16 9 22 6 5 24 45 42 89 17 44 51 127 75
185 25 58 48 114 53 125 5 11 13 31 19 45 54 127 82 195 82 202 0 5 11 34 25
64 14 30 25 57 25 59 0 3 8 24 19 48 10 23 45 112 76 197 32 85 65 173 75 195
9 22 23 56 29 75 7 19 19 49 26 65 8 17 24 57 36 90 24 66 44 97 30 47 -5 -17
-12 -36 -16 -42 -3 -6 -8 -22 -11 -35 -2 -14 -25 -80 -50 -148 -25 -67 -59
-160 -75 -207 -17 -47 -34 -94 -39 -105 -5 -11 -27 -65 -49 -120 -39 -99 -79
-198 -148 -365 -19 -47 -48 -119 -65 -160 -17 -41 -41 -97 -53 -125 -12 -27
-32 -77 -44 -110 -37 -96 -250 -594 -320 -748 -17 -37 -31 -70 -31 -73 0 -3
-11 -29 -24 -57 -49 -105 -96 -209 -96 -212 0 -2 -18 -43 -41 -92 -22 -48 -47
-104 -56 -123 -9 -19 -33 -72 -54 -117 -22 -45 -39 -84 -39 -87 0 -2 -16 -39
-36 -83 -49 -106 -64 -139 -124 -273 -28 -63 -67 -148 -86 -188 -19 -40 -34
-75 -34 -77 0 -3 -14 -33 -31 -67 -40 -82 -80 -188 -71 -188 4 0 -1 -5 -11
-11 -14 -8 -17 -18 -12 -40 5 -21 3 -29 -6 -27 -16 4 -24 -31 -11 -44 6 -6 23
14 47 57 44 79 252 489 283 560 12 28 27 57 32 65 5 8 28 56 51 105 22 50 54
117 69 150 16 33 44 94 63 135 19 41 48 104 65 140 16 36 66 148 110 250 44
102 92 212 107 245 31 67 32 71 103 240 27 66 62 147 77 180 15 33 33 74 41
90 15 34 128 309 216 525 32 80 64 156 70 170 6 14 12 27 13 30 1 3 9 23 19
45 9 22 35 87 57 145 23 58 45 113 50 123 5 9 20 47 34 85 14 37 30 76 35 87
5 11 26 70 46 130 20 61 57 157 81 215 25 58 58 143 74 190 16 47 34 93 40
104 22 39 164 443 173 492 3 12 9 31 14 41 15 29 135 390 163 493 4 14 21 75
39 135 58 206 122 456 161 635 6 30 17 78 24 105 7 28 13 57 14 65 0 8 5 35
11 60 9 37 26 128 44 225 2 11 18 110 34 220 17 110 33 216 37 235 3 19 7 64
9 99 3 35 9 119 15 185 6 67 14 153 17 191 19 222 7 879 -20 1100 -8 66 -20
170 -27 230 -6 61 -18 144 -25 185 -8 41 -19 104 -25 140 -6 36 -15 72 -19 81
-4 8 -13 58 -20 110 -7 51 -16 99 -20 104 -4 6 -11 26 -14 45 -17 89 -49 207
-62 232 -8 14 -14 32 -14 40 0 24 -91 292 -103 304 -4 4 -7 13 -7 20 0 11 -17
49 -132 294 -47 102 -52 111 -156 301 -96 175 -283 415 -490 630 -79 82 -165
157 -285 247 -235 176 -319 233 -457 309 -19 11 -64 36 -100 56 -36 20 -77 37
-91 39 -14 2 -37 10 -50 19 -28 18 -160 81 -204 98 -31 12 -60 19 -107 28 -16
3 -28 9 -28 13 0 4 -12 13 -27 18 -16 6 -66 24 -113 42 -118 43 -328 102 -445
124 -11 2 -58 13 -105 24 -87 21 -212 38 -335 47 -38 3 -97 10 -130 16 -72 13
-697 20 -775 8z m344 -585 c44 -12 52 -12 67 2 15 13 21 14 52 0 30 -12 43
-12 79 -2 57 16 221 12 358 -9 19 -3 71 -8 115 -10 44 -3 107 -11 140 -17 33
-6 70 -12 81 -13 12 -2 31 -8 44 -15 12 -6 28 -9 36 -6 8 3 47 -6 86 -19 40
-14 86 -25 101 -25 15 0 45 -9 67 -20 22 -11 51 -20 65 -20 14 0 39 -7 56 -15
16 -9 46 -17 66 -18 20 -1 45 -10 57 -21 25 -21 131 -66 156 -66 10 0 24 -7
31 -17 8 -9 32 -25 54 -35 59 -29 128 -68 145 -83 19 -16 103 -60 111 -57 4 0
15 -8 24 -18 10 -11 22 -20 26 -20 9 0 90 -60 115 -85 9 -8 19 -15 23 -15 4 0
13 -11 19 -25 12 -25 12 -25 -13 -9 -14 9 -25 20 -25 24 0 4 -8 10 -17 13 -21
7 -105 54 -146 81 -43 29 -88 55 -127 72 -19 9 -37 20 -40 24 -5 8 -122 64
-214 102 -28 12 -55 25 -60 30 -6 4 -17 8 -26 8 -9 0 -61 18 -115 40 -54 22
-104 40 -112 40 -7 0 -40 9 -73 20 -33 11 -68 21 -77 23 -10 1 -23 5 -28 9 -6
3 -49 14 -95 23 -113 22 -105 21 -257 40 -281 35 -804 36 -940 2 -12 -3 -77
-13 -145 -23 -68 -9 -136 -24 -153 -32 -16 -8 -55 -16 -86 -18 -31 -1 -71 -10
-88 -19 -25 -13 -36 -14 -47 -5 -11 10 -15 9 -20 -4 -4 -11 -13 -15 -25 -11
-11 4 -19 2 -19 -4 0 -6 -6 -11 -14 -11 -8 0 -22 -7 -31 -16 -12 -13 -19 -14
-28 -5 -17 17 -27 13 -27 -9 0 -21 -15 -27 -25 -10 -9 15 -25 12 -25 -4 0 -16
-34 -29 -73 -26 -17 1 -29 -4 -33 -14 -3 -9 -15 -16 -26 -16 -11 0 -22 -8 -25
-20 -6 -23 -14 -25 -31 -8 -8 8 -15 8 -27 -2 -12 -10 -21 -10 -40 -2 -22 10
-25 9 -25 -7 0 -12 11 -23 31 -30 28 -10 29 -12 15 -26 -11 -11 -14 -28 -10
-58 8 -66 -15 -87 -101 -93 -116 -8 -159 -12 -170 -15 -5 -2 -30 0 -53 4 -39
7 -42 9 -31 23 11 14 10 18 -4 29 -9 7 -17 18 -17 25 0 9 -11 11 -42 5 -24 -3
-54 -8 -68 -10 -70 -9 -145 -26 -154 -35 -5 -5 -27 -10 -47 -10 -24 0 -39 -5
-43 -16 -3 -8 -10 -13 -14 -10 -5 3 -18 -1 -28 -9 -10 -8 -27 -15 -37 -15 -9
0 -26 -4 -37 -10 -11 -5 -29 -15 -40 -20 -16 -8 -26 -6 -45 7 -31 23 -31 33
-1 33 27 0 42 15 26 25 -18 11 1 27 26 21 14 -4 24 -2 24 4 0 6 10 14 23 19
12 5 39 21 60 35 21 14 43 26 50 26 7 0 20 9 29 19 10 12 24 17 36 14 13 -3
27 5 43 24 13 16 40 35 59 43 19 7 49 24 66 37 17 13 38 23 46 23 8 0 23 9 33
20 11 12 31 20 51 20 26 0 32 4 28 15 -7 16 17 20 92 16 27 -2 45 3 53 13 8 9
20 16 28 16 8 0 24 11 35 25 12 15 30 25 45 25 15 0 35 8 46 18 13 11 21 13
24 6 4 -12 51 -7 71 9 8 6 17 5 27 -3 10 -9 15 -9 15 -1 0 6 9 11 20 11 11 0
20 5 20 10 0 6 28 10 63 10 38 0 71 6 82 14 14 10 23 11 37 3 9 -6 20 -8 24
-5 10 11 -6 28 -27 28 -10 0 -19 4 -19 9 0 4 36 8 80 8 68 -1 82 2 94 19 14
18 15 18 41 -10 25 -27 49 -30 27 -3 -13 15 -6 27 15 27 7 0 13 -7 13 -16 0
-8 5 -12 11 -9 21 13 369 27 369 15 0 -4 11 -12 25 -18 20 -9 25 -9 25 2 0 17
69 46 95 39 11 -3 42 -11 69 -19z m-1624 -519 c0 -8 -7 -15 -16 -15 -14 0 -14
3 -4 15 7 8 14 15 16 15 2 0 4 -7 4 -15z m55 -55 c3 -5 1 -10 -4 -10 -6 0 -11
5 -11 10 0 6 2 10 4 10 3 0 8 -4 11 -10z m-555 -71 c0 -5 -9 -9 -19 -9 -11 0
-23 -4 -26 -10 -8 -13 -25 -13 -25 -1 0 12 52 39 63 34 4 -2 7 -8 7 -14z m520
-109 c11 -6 25 -29 31 -53 7 -23 16 -47 21 -53 16 -21 13 -105 -8 -219 -2 -11
-8 -45 -13 -75 -5 -30 -17 -84 -26 -120 -10 -36 -19 -76 -21 -90 -1 -14 -12
-65 -24 -114 -11 -49 -19 -95 -16 -103 3 -7 1 -24 -5 -37 -8 -16 -8 -38 -2
-68 5 -24 7 -53 3 -63 -4 -11 -15 -54 -25 -95 -19 -81 -79 -270 -95 -298 -5
-9 -23 -55 -39 -102 -33 -95 -51 -140 -95 -242 -9 -20 -16 -39 -16 -43 0 -4
-14 -37 -31 -73 -17 -37 -42 -94 -56 -127 -14 -33 -37 -85 -51 -115 -14 -30
-26 -57 -27 -60 -2 -6 -47 -103 -92 -200 -95 -203 -109 -236 -123 -290 -7 -25
-34 -90 -60 -145 -68 -142 -169 -347 -180 -365 -5 -8 -15 -27 -22 -41 -7 -14
-31 -59 -53 -100 -22 -42 -56 -106 -76 -145 -44 -85 -95 -177 -126 -226 -12
-21 -23 -41 -23 -44 0 -4 -18 -35 -40 -70 -22 -35 -40 -66 -40 -68 0 -3 -22
-42 -50 -87 -27 -45 -50 -88 -50 -94 0 -7 -6 -18 -14 -24 -8 -7 -22 -26 -31
-44 -18 -36 -31 -58 -59 -102 -11 -16 -29 -46 -41 -65 -12 -19 -38 -61 -58
-92 -21 -31 -37 -59 -37 -63 0 -4 -13 -24 -29 -44 -15 -20 -37 -51 -47 -70
-24 -42 -28 -49 -89 -140 -28 -40 -59 -88 -70 -106 -11 -17 -32 -47 -46 -66
-14 -19 -33 -51 -43 -72 -10 -21 -24 -41 -31 -44 -8 -2 -17 -13 -20 -23 -3
-10 -21 -38 -40 -62 -19 -23 -35 -46 -35 -50 0 -4 -82 -117 -182 -251 -101
-134 -190 -254 -198 -267 -26 -38 -313 -395 -370 -460 -12 -14 -39 -45 -58
-70 -209 -259 -811 -882 -1141 -1180 -52 -47 -110 -100 -130 -119 -20 -18 -69
-63 -110 -100 -41 -36 -98 -87 -126 -114 -29 -26 -65 -57 -81 -69 -16 -13 -34
-27 -40 -33 -6 -5 -37 -32 -69 -60 -33 -27 -77 -66 -100 -86 -38 -34 -81 -67
-329 -261 -61 -48 -128 -101 -148 -118 -20 -16 -41 -30 -46 -30 -5 0 -20 -9
-33 -21 -25 -22 -119 -88 -175 -124 -18 -11 -70 -45 -116 -76 -45 -31 -111
-73 -146 -95 -35 -21 -91 -57 -125 -79 -109 -69 -353 -195 -378 -195 -10 0
-19 -4 -21 -9 -4 -12 -182 -71 -214 -71 -40 0 -105 53 -160 130 -27 38 -54 70
-59 70 -9 0 -32 60 -41 110 -12 60 -24 113 -29 119 -14 23 -60 358 -60 441 0
52 -3 100 -7 105 -9 15 -2 73 33 275 13 73 15 81 26 110 6 14 16 50 22 80 7
30 16 67 20 81 5 14 7 52 5 83 -1 33 4 73 12 92 8 18 27 84 43 146 40 155 99
332 131 390 6 10 10 23 10 28 0 6 18 49 40 96 22 47 40 87 40 89 0 3 17 42 39
87 21 46 48 106 61 133 26 59 45 101 99 215 21 47 60 130 85 185 26 55 55 116
67 135 11 19 40 75 64 124 24 48 49 94 55 101 6 7 21 32 34 56 12 24 47 89 76
144 29 55 62 110 74 123 12 13 20 26 18 28 -2 3 16 35 39 72 24 37 49 79 56
95 6 15 16 27 21 27 5 0 23 26 40 58 17 31 40 67 51 79 11 12 30 40 42 62 11
22 26 45 34 51 7 6 19 25 26 43 7 18 29 51 49 74 20 22 45 59 55 82 11 22 23
41 27 41 4 0 18 15 30 34 86 127 107 156 141 201 20 28 41 55 45 60 4 6 28 37
53 70 25 33 59 80 74 105 15 25 48 69 74 98 25 30 55 66 66 82 43 59 134 176
156 200 31 32 100 117 119 146 9 12 40 51 70 85 30 34 71 80 90 102 19 22 44
50 55 61 11 12 32 37 47 56 14 19 53 63 85 96 32 34 103 111 158 170 130 142
634 645 710 709 33 28 96 84 140 125 44 42 94 88 110 102 94 80 138 118 186
158 91 77 214 183 224 194 6 6 35 28 65 49 30 20 73 53 95 73 58 51 223 184
228 184 3 0 16 9 29 20 71 60 138 110 147 110 6 0 28 16 48 35 20 19 40 35 45
35 4 0 18 10 32 23 14 12 58 45 97 72 39 28 86 62 104 78 18 15 36 27 39 27 7
0 67 40 76 51 12 15 111 79 121 79 10 0 24 10 85 59 6 5 29 19 50 30 21 12 73
44 114 71 41 28 86 55 100 61 14 6 32 16 40 24 14 12 96 59 165 93 17 9 32 19
35 22 3 4 43 28 90 52 47 25 110 59 140 76 115 65 148 83 260 137 63 31 131
64 150 73 19 9 37 20 40 24 3 3 18 10 33 13 15 4 27 11 27 15 0 5 17 14 38 20
20 7 41 16 47 21 5 5 16 9 25 9 8 0 31 9 50 19 41 23 46 24 70 11z m778 -672
c-7 -19 -38 -22 -38 -4 0 10 9 16 21 16 12 0 19 -5 17 -12z m4720 -2531 c0
-20 -4 -34 -9 -31 -5 3 -9 29 -8 57 0 38 2 46 9 31 4 -11 8 -37 8 -57z m-6578
-1343 c0 -3 -7 -12 -15 -20 -8 -8 -19 -23 -24 -32 -5 -9 -12 -14 -16 -10 -4 3
3 16 14 27 12 12 21 26 21 31 0 6 5 10 10 10 6 0 10 -3 10 -6z m-80 -130 c0
-8 -4 -12 -10 -9 -5 3 -10 10 -10 16 0 5 5 9 10 9 6 0 10 -7 10 -16z m-33 -51
c2 -6 -2 -17 -9 -24 -16 -17 -78 -108 -78 -115 0 -20 -86 -173 -121 -216 -56
-68 -89 -115 -89 -127 0 -9 -118 -171 -153 -211 -7 -8 -26 -37 -42 -65 -27
-47 -86 -126 -185 -245 -8 -10 -28 -35 -45 -56 -16 -21 -45 -54 -62 -73 -18
-20 -53 -63 -78 -96 -106 -141 -156 -204 -206 -261 -150 -169 -199 -232 -199
-253 0 -6 -6 -11 -14 -11 -8 0 -36 -25 -63 -56 -26 -32 -67 -77 -89 -101 -23
-24 -59 -65 -79 -91 -21 -26 -60 -65 -86 -87 -27 -22 -54 -50 -60 -62 -7 -13
-18 -23 -26 -23 -7 0 -18 -12 -23 -26 -6 -14 -19 -28 -30 -31 -11 -3 -20 -10
-20 -17 0 -6 -28 -36 -61 -66 -91 -82 -158 -149 -176 -176 -8 -13 -23 -24 -33
-24 -10 0 -21 -8 -24 -17 -7 -21 -73 -93 -86 -93 -5 0 -52 -43 -106 -95 -54
-52 -106 -98 -117 -101 -11 -3 -16 -12 -13 -20 3 -8 2 -14 -3 -14 -27 0 -221
-168 -221 -192 0 -5 -9 -7 -20 -3 -15 5 -21 1 -25 -17 -4 -15 -18 -29 -38 -36
-24 -9 -29 -14 -19 -24 20 -20 13 -31 -17 -25 -31 7 -62 -15 -41 -28 6 -3 8
-11 4 -16 -4 -6 -11 -6 -19 1 -10 9 -16 6 -25 -9 -6 -12 -17 -21 -25 -21 -8 0
-15 -6 -15 -14 0 -16 -42 -46 -66 -46 -10 0 -14 -5 -10 -15 3 -9 0 -15 -8 -15
-7 0 -21 -9 -31 -20 -10 -11 -15 -20 -10 -20 4 0 2 -7 -6 -16 -11 -14 -13 -14
-21 0 -12 21 -27 20 -47 -1 -9 -10 -23 -18 -31 -18 -9 0 -14 -8 -13 -22 3 -23
-16 -43 -44 -47 -10 -1 -22 -12 -28 -24 -5 -12 -18 -22 -28 -22 -9 0 -22 -11
-27 -24 -5 -14 -19 -26 -32 -28 -17 -2 -24 -11 -26 -31 -3 -28 -4 -28 -23 -11
-20 18 -21 17 -53 -18 -18 -20 -42 -39 -53 -42 -12 -4 -26 -20 -33 -35 -8 -21
-17 -27 -30 -24 -12 3 -23 -3 -31 -18 -18 -35 -37 -50 -55 -47 -27 5 -29 -23
-3 -29 21 -6 19 -8 -16 -18 -23 -6 -43 -7 -46 -2 -3 4 -18 -6 -33 -23 -14 -18
-32 -30 -39 -27 -14 5 -16 -20 -4 -40 4 -6 2 -15 -4 -19 -6 -4 -16 0 -21 9 -5
9 -15 14 -23 11 -18 -7 -20 -34 -2 -34 8 0 7 -3 -3 -10 -9 -6 -19 -5 -29 3 -7
6 -24 10 -36 9 -18 -2 -24 3 -28 25 -6 32 7 53 32 53 10 0 30 14 46 30 28 30
55 39 55 20 0 -5 5 -10 11 -10 6 0 9 7 5 15 -9 25 4 46 25 40 11 -4 19 -2 19
4 0 5 10 11 23 13 12 2 26 13 32 26 5 12 17 24 25 27 8 3 35 23 60 46 24 22
58 48 74 57 56 32 66 39 116 73 28 19 48 40 45 46 -2 8 9 19 28 26 32 14 73
45 105 80 9 9 20 17 25 17 8 0 44 31 114 98 13 12 29 22 36 22 7 0 20 14 30
31 9 17 26 33 36 36 11 3 22 16 25 29 4 13 13 24 22 24 8 0 27 12 42 28 15 15
32 27 37 27 6 0 53 42 105 94 52 51 105 100 118 108 12 9 22 22 22 29 0 8 5
14 11 14 5 0 22 11 37 25 15 14 46 43 70 65 24 22 48 40 53 40 5 0 11 11 15
25 3 13 31 46 61 72 69 60 91 80 180 162 39 36 91 84 115 106 23 22 82 82 129
133 47 50 91 92 97 92 6 0 18 12 26 28 16 31 101 122 114 122 5 0 15 11 22 25
7 14 17 25 22 25 11 0 88 78 88 90 0 4 9 10 21 13 13 3 19 12 17 23 -2 12 7
23 25 32 15 7 27 19 27 27 0 8 10 21 21 29 21 14 38 39 58 84 6 12 15 22 19
22 12 0 152 140 152 151 0 5 26 36 58 69 84 87 112 121 112 134 0 7 16 29 35
49 19 20 35 41 35 47 0 18 62 80 80 80 11 0 20 9 22 21 2 12 12 27 23 33 30
16 36 28 31 59 -5 24 -3 27 24 27 24 0 33 6 42 28 7 15 21 37 31 49 11 12 25
31 31 41 32 54 71 107 102 137 19 18 34 40 34 49 0 8 6 19 13 23 26 16 76 89
74 108 -1 12 7 24 21 30 15 6 21 16 18 28 -2 9 0 17 6 17 5 0 35 25 65 56 45
47 54 62 51 85 -3 21 1 30 19 40 13 7 23 18 23 25 0 6 16 28 35 47 19 19 35
42 35 50 0 10 7 13 20 10 16 -4 20 0 20 20 0 14 8 32 18 39 10 7 21 21 25 31
7 19 28 19 34 0z m9717 -627 c-3 -9 -10 -16 -15 -16 -5 0 -4 9 3 20 14 22 21
20 12 -4z m-51 -71 c-3 -9 -8 -14 -10 -11 -3 3 -2 9 2 15 9 16 15 13 8 -4z
m-68 -103 l-28 -27 23 33 c12 18 25 31 28 27 3 -3 -7 -18 -23 -33z m-3250
-124 c-3 -18 -7 -41 -9 -51 -1 -9 -8 -23 -14 -29 -7 -7 -12 -21 -12 -32 -1
-33 -69 -224 -70 -194 0 15 5 30 10 33 6 3 10 18 10 33 0 15 13 65 30 112 16
47 29 90 30 97 0 17 19 63 25 63 3 0 3 -15 0 -32z m3120 -80 c-14 -24 -41 -65
-58 -92 -18 -27 -37 -58 -43 -68 -6 -11 -21 -30 -32 -43 -11 -13 -26 -33 -32
-45 -6 -12 -14 -20 -16 -17 -6 6 17 57 26 57 4 0 12 12 19 26 9 21 62 95 81
114 3 3 12 19 20 35 20 41 53 86 58 80 2 -2 -8 -23 -23 -47z m-220 -333 c-15
-19 -30 -33 -32 -31 -3 3 8 20 23 40 16 19 30 33 32 31 2 -2 -8 -20 -23 -40z
m-45 -60 c0 -3 -9 -15 -20 -27 -22 -24 -26 -18 -8 12 12 19 28 27 28 15z m-71
-112 c-8 -10 -20 -24 -26 -31 -7 -7 -17 -21 -22 -30 -5 -9 -13 -14 -16 -10 -9
8 52 88 67 88 6 0 5 -8 -3 -17z m-69 -96 c0 -8 -11 -24 -25 -37 -14 -13 -25
-29 -25 -35 0 -6 -16 -26 -35 -45 -39 -38 -47 -24 -12 21 12 15 36 46 52 68
31 42 45 50 45 28z m-3019 -265 c-16 -42 -33 -86 -37 -97 -6 -16 -8 -17 -11
-4 -4 17 38 153 59 191 10 20 13 21 16 5 2 -9 -10 -52 -27 -95z m2853 41 c-53
-78 -85 -104 -49 -41 27 47 76 107 87 108 5 0 -13 -30 -38 -67z m-93 -126 c-8
-8 -11 -7 -11 4 0 9 3 19 7 23 4 4 9 2 11 -4 3 -7 -1 -17 -7 -23z m-61 -77
c-6 -12 -14 -20 -17 -17 -2 3 1 14 8 26 17 26 24 19 9 -9z m-2790 -67 c-11
-17 -11 -17 -6 0 3 10 6 24 7 30 0 9 2 9 5 0 3 -7 0 -20 -6 -30z m2745 -2 c3
-6 -4 -15 -15 -21 -11 -6 -20 -17 -20 -24 0 -8 -7 -16 -15 -20 -22 -8 -18 15
8 46 24 30 32 33 42 19z m-82 -105 c-10 -13 -22 -22 -26 -19 -9 6 21 43 35 43
5 0 1 -11 -9 -24z m-33 -44 c0 -5 -11 -19 -25 -32 -29 -27 -32 -21 -9 15 16
24 34 33 34 17z m-60 -71 c0 -22 -45 -79 -54 -70 -6 5 42 89 51 89 2 0 3 -9 3
-19z m-109 -149 c-23 -27 -41 -53 -41 -58 0 -6 -11 -21 -25 -34 -14 -13 -25
-27 -25 -31 0 -7 -45 -62 -87 -106 -13 -13 -23 -28 -23 -32 0 -4 -12 -22 -27
-38 -16 -17 -36 -43 -46 -57 -10 -14 -24 -26 -32 -26 -15 0 57 100 191 265 41
50 90 111 111 137 21 26 39 43 41 38 2 -5 -15 -31 -37 -58z m-629 -159 c-11
-16 -33 -39 -48 -53 -33 -29 -17 -5 31 48 36 39 43 41 17 5z m308 -249 c0 -4
-12 -21 -27 -39 -63 -75 -85 -103 -134 -167 -27 -38 -53 -68 -57 -68 -4 0 -16
-14 -26 -31 -11 -18 -41 -57 -68 -88 -83 -94 -92 -105 -118 -144 -25 -36 -50
-49 -50 -24 0 7 26 41 58 77 32 36 65 74 73 86 14 21 62 80 125 153 18 20 49
59 70 87 86 114 154 183 154 158z m-480 -592 c0 -13 -23 -32 -37 -32 -11 0
-11 5 -3 20 10 19 40 28 40 12z m-50 -51 c0 -4 -17 -28 -38 -52 -20 -24 -54
-65 -75 -91 -21 -26 -44 -53 -50 -60 -7 -7 -20 -23 -28 -35 -9 -12 -40 -49
-70 -81 -53 -58 -110 -124 -165 -192 -15 -19 -44 -53 -64 -75 -19 -22 -60 -69
-90 -104 -30 -34 -68 -78 -85 -97 -16 -18 -49 -55 -72 -81 -82 -93 -92 -103
-102 -103 -5 0 -12 -8 -15 -17 -3 -10 -31 -45 -62 -78 -70 -75 -300 -341 -334
-385 -14 -18 -34 -43 -45 -55 -35 -37 -125 -179 -125 -197 0 -9 -5 -20 -11
-24 -6 -3 -9 -15 -6 -25 3 -10 0 -20 -7 -23 -7 -3 -6 -8 4 -15 21 -14 12 -19
-55 -29 -73 -11 -131 -8 -149 7 -8 7 -25 9 -39 6 -50 -13 -34 13 27 44 35 17
83 53 108 79 25 26 69 70 99 98 68 64 160 161 271 285 47 52 96 106 109 120
13 14 56 60 94 103 39 44 79 89 90 101 11 12 45 50 75 86 30 35 61 68 68 72 6
4 12 12 12 17 0 5 19 29 43 53 75 79 122 130 192 212 38 44 94 107 125 140 30
33 71 80 90 104 19 24 45 55 57 67 12 13 26 31 31 40 12 21 175 192 185 193 4
1 7 -3 7 -8z m-11410 -381 c0 -5 -4 -10 -10 -10 -5 0 -10 5 -10 10 0 6 5 10
10 10 6 0 10 -4 10 -10z m-5 -54 c0 -13 -16 -28 -47 -44 -50 -26 -59 -39 -33
-48 8 -4 15 -10 15 -15 0 -17 -25 -9 -44 13 -16 18 -21 19 -30 7 -14 -17 -45
-37 -70 -46 -17 -6 -17 -7 4 -18 30 -16 11 -27 -20 -12 -37 19 -35 34 9 61 21
14 42 30 46 36 3 5 19 10 36 10 16 0 29 5 29 10 0 6 12 10 26 10 16 0 24 5 21
13 -2 6 0 20 5 30 13 24 53 19 53 -7z m15 -66 c0 -5 -4 -10 -10 -10 -5 0 -10
5 -10 10 0 6 5 10 10 10 6 0 10 -4 10 -10z m-130 -70 c0 -5 -4 -10 -10 -10 -5
0 -10 5 -10 10 0 6 5 10 10 10 6 0 10 -4 10 -10z m-155 -25 c0 -14 -8 -21 -30
-25 -18 -3 -34 -14 -41 -29 -11 -20 -13 -21 -16 -5 -4 22 51 83 72 80 8 -1 15
-10 15 -21z m-120 -65 c-5 -15 -1 -22 16 -28 22 -8 21 -9 -11 -20 -36 -13 -82
-15 -117 -6 -32 9 -29 24 5 24 15 0 45 11 67 25 49 30 48 30 40 5z m-1105
-460 c0 -5 -7 -10 -15 -10 -8 0 -15 5 -15 10 0 6 7 10 15 10 8 0 15 -4 15 -10z
m11040 -1095 c-7 -8 -17 -12 -22 -9 -6 4 -5 10 3 15 22 14 33 10 19 -6z m3109
-2902 c1 -7 -3 -13 -9 -13 -5 0 -10 15 -9 33 0 27 2 29 9 12 5 -11 9 -26 9
-32z m5 -65 c4 -24 9 -77 12 -118 2 -41 6 -90 10 -109 4 -28 3 -33 -10 -28 -9
4 -16 2 -16 -2 0 -5 6 -11 13 -14 10 -3 10 -9 0 -26 -16 -27 -16 -31 1 -31 20
0 24 -18 31 -140 4 -58 9 -108 11 -111 2 -3 6 -68 8 -145 6 -160 23 -653 31
-889 9 -271 32 -601 45 -660 5 -22 10 -61 10 -86 0 -65 38 -312 56 -361 7 -22
14 -55 14 -72 0 -17 9 -58 19 -91 10 -33 17 -64 14 -69 -7 -10 -53 130 -53
161 0 12 -4 24 -9 27 -4 3 -11 34 -15 68 -4 35 -14 88 -23 118 -9 30 -17 64
-18 75 -2 11 -6 54 -11 95 -5 41 -7 86 -6 98 2 13 -1 29 -6 35 -10 13 -23 174
-37 452 -3 61 -7 146 -10 190 -2 44 -7 229 -10 410 -3 182 -12 443 -20 580 -8
138 -15 253 -15 258 0 4 -6 7 -13 7 -17 0 -18 4 -17 240 0 52 -3 114 -6 138
-4 25 -2 42 4 42 5 0 13 -19 16 -42z m275 -3042 c-1 -16 -4 -13 -11 12 -6 17
-15 32 -19 32 -5 0 -6 7 -2 15 4 12 9 10 19 -11 8 -14 14 -36 13 -48z m161
-456 c0 -5 -2 -10 -4 -10 -3 0 -8 5 -11 10 -3 6 -1 10 4 10 6 0 11 -4 11 -10z
m-9300 -664 c0 -2 -7 -6 -15 -10 -8 -3 -15 -1 -15 4 0 6 7 10 15 10 8 0 15 -2
15 -4z m-43 -51 c-4 -8 -11 -15 -17 -15 -7 0 -7 6 0 21 13 23 26 19 17 -6z
m-37 -16 c0 -29 -32 -70 -182 -227 -96 -102 -129 -142 -151 -186 -22 -41 -120
-155 -134 -155 -25 -2 -14 26 40 103 15 21 27 44 27 50 0 6 30 43 68 82 37 39
94 102 128 140 33 38 81 91 105 119 69 77 99 100 99 74z"/>
<path d="M10955 22890 c-3 -5 3 -10 15 -10 12 0 18 5 15 10 -3 6 -10 10 -15
10 -5 0 -12 -4 -15 -10z"/>
<path d="M11050 22720 c0 -5 7 -10 15 -10 8 0 15 5 15 10 0 6 -7 10 -15 10 -8
0 -15 -4 -15 -10z"/>
<path d="M5831 13724 c0 -11 3 -14 6 -6 3 7 2 16 -1 19 -3 4 -6 -2 -5 -13z"/>
<path d="M9809 23010 c-19 -15 -21 -19 -7 -20 15 0 48 24 48 36 0 10 -20 3
-41 -16z"/>
<path d="M9710 22959 c-19 -11 -28 -19 -19 -19 9 0 27 9 40 20 29 23 25 23
-21 -1z"/>
<path d="M9375 22770 c-3 -5 -1 -10 4 -10 6 0 11 5 11 10 0 6 -2 10 -4 10 -3
0 -8 -4 -11 -10z"/>
<path d="M8900 22480 c0 -5 5 -10 10 -10 6 0 10 5 10 10 0 6 -4 10 -10 10 -5
0 -10 -4 -10 -10z"/>
<path d="M8830 22430 c0 -5 5 -10 10 -10 6 0 10 5 10 10 0 6 -4 10 -10 10 -5
0 -10 -4 -10 -10z"/>
<path d="M10620 15591 c0 -12 5 -21 10 -21 6 0 10 6 10 14 0 8 -4 18 -10 21
-5 3 -10 -3 -10 -14z"/>
<path d="M17220 14835 c-13 -14 -21 -27 -18 -30 2 -3 15 6 28 20 13 14 21 27
18 30 -2 3 -15 -6 -28 -20z"/>
<path d="M16819 14341 c-24 -29 -68 -78 -96 -110 -29 -31 -53 -59 -53 -63 0
-4 -10 -18 -22 -31 -55 -56 -98 -112 -98 -127 0 -14 160 147 160 162 0 4 11
20 25 35 57 62 72 80 104 120 49 64 32 75 -20 14z"/>
<path d="M13716 14163 c-11 -11 -6 -23 9 -23 9 0 27 -7 40 -16 13 -9 30 -14
37 -11 9 4 8 6 -3 6 -9 1 -22 8 -29 17 -18 20 -46 35 -54 27z"/>
<path d="M17117 13694 c-28 -30 -30 -49 -6 -49 15 0 43 49 37 67 -2 6 -16 -2
-31 -18z"/>
<path d="M15755 13100 c-3 -5 -1 -10 4 -10 6 0 11 5 11 10 0 6 -2 10 -4 10 -3
0 -8 -4 -11 -10z"/>
<path d="M15687 13028 c-26 -28 -45 -53 -42 -56 5 -6 20 9 88 86 41 45 0 19
-46 -30z"/>
<path d="M15315 12606 c-44 -45 -72 -80 -60 -75 14 5 99 98 94 103 -2 2 -18
-10 -34 -28z"/>
<path d="M15227 12513 c-4 -3 -7 -11 -7 -17 0 -6 5 -5 12 2 6 6 9 14 7 17 -3
3 -9 2 -12 -2z"/>
<path d="M15196 12485 c-3 -8 -1 -15 4 -15 6 0 10 7 10 15 0 8 -2 15 -4 15 -2
0 -6 -7 -10 -15z"/>
<path d="M13805 11560 c-3 -5 -1 -10 4 -10 6 0 11 5 11 10 0 6 -2 10 -4 10 -3
0 -8 -4 -11 -10z"/>
<path d="M13897 11544 c-4 -4 -7 -14 -7 -23 0 -11 3 -12 11 -4 6 6 10 16 7 23
-2 6 -7 8 -11 4z"/>
<path d="M13781 11522 c-6 -12 -11 -27 -11 -34 1 -7 8 0 16 15 9 16 13 31 11
34 -3 2 -10 -4 -16 -15z"/>
<path d="M12340 8846 c0 -7 -7 -19 -15 -26 -8 -7 -15 -19 -15 -27 0 -9 10 -3
25 15 26 31 32 52 15 52 -5 0 -10 -6 -10 -14z"/>
<path d="M12256 8703 c-14 -21 -34 -49 -45 -63 -11 -14 -21 -30 -21 -36 0 -6
-6 -17 -14 -23 -16 -13 -28 -51 -17 -51 4 0 20 17 34 37 18 25 27 32 27 20 0
-9 7 -17 15 -17 17 0 20 21 5 36 -13 13 1 54 24 73 13 11 16 11 16 -1 0 -8 -6
-20 -12 -27 -11 -11 -9 -11 10 -2 24 13 28 26 11 37 -6 3 -9 17 -6 30 6 33 1
30 -27 -13z"/>
<path d="M12307 8723 c-4 -3 -7 -11 -7 -17 0 -6 5 -5 12 2 6 6 9 14 7 17 -3 3
-9 2 -12 -2z"/>
<path d="M12191 8529 c-18 -40 -7 -49 13 -10 18 34 19 41 8 41 -4 0 -13 -14
-21 -31z"/>
<path d="M12130 8508 c0 -7 -9 -24 -20 -38 -23 -30 -25 -53 -6 -69 11 -10 17
-7 30 11 20 28 21 49 2 22 -20 -26 -29 -13 -10 14 8 12 20 19 26 16 8 -5 9 -1
5 10 -4 10 -7 24 -7 32 0 17 -20 19 -20 2z"/>
<path d="M12091 8353 c-13 -28 -13 -28 8 -9 22 20 27 36 13 36 -5 0 -14 -12
-21 -27z"/>
<path d="M12010 8301 c0 -11 -4 -23 -10 -26 -5 -3 -15 -16 -21 -27 -10 -18 -9
-20 5 -15 20 8 20 -2 1 -40 -18 -36 -45 -51 -46 -25 0 14 -2 14 -9 -3 -13 -29
-12 -30 14 -33 17 -1 27 5 31 18 4 11 11 20 16 20 9 0 18 18 33 67 6 18 4 22
-9 17 -13 -6 -13 -1 4 30 17 29 18 36 6 36 -8 0 -15 -9 -15 -19z"/>
<path d="M12050 8310 c0 -5 5 -10 10 -10 6 0 10 5 10 10 0 6 -4 10 -10 10 -5
0 -10 -4 -10 -10z"/>
<path d="M11900 8095 c0 -15 6 -25 14 -25 19 0 30 32 14 42 -21 13 -28 9 -28
-17z"/>
<path d="M11860 8044 c0 -8 5 -12 10 -9 6 3 10 10 10 16 0 5 -4 9 -10 9 -5 0
-10 -7 -10 -16z"/>
<path d="M11663 7713 c-7 -2 -13 -8 -13 -13 0 -10 38 -1 46 11 6 10 -13 11
-33 2z"/>
<path d="M11516 7505 c-2 -6 7 -11 22 -10 14 0 27 6 29 12 6 16 -45 14 -51 -2z"/>
<path d="M11490 7459 c0 -5 5 -7 10 -4 6 3 10 8 10 11 0 2 -4 4 -10 4 -5 0
-10 -5 -10 -11z"/>
<path d="M11501 7433 c-7 -8 -11 -16 -8 -19 2 -2 10 2 17 11 17 20 9 27 -9 8z"/>
<path d="M11422 7324 c-36 -41 -38 -44 -18 -44 14 0 66 58 66 73 0 16 -18 5
-48 -29z"/>
<path d="M11363 7259 c3 -13 1 -29 -5 -36 -16 -19 7 -17 27 3 20 21 16 48 -9
52 -15 3 -18 0 -13 -19z"/>
<path d="M11545 7241 c-3 -5 -1 -12 5 -16 5 -3 10 1 10 9 0 18 -6 21 -15 7z"/>
<path d="M11418 7048 c-52 -68 -88 -127 -88 -144 0 -9 24 16 68 74 33 42 84
133 78 139 -2 2 -28 -29 -58 -69z"/>
<path d="M11215 7057 c-26 -30 -28 -39 -6 -28 11 7 21 18 21 26 0 18 -2 18
-15 2z"/>
<path d="M11115 6900 c-3 -5 -1 -10 4 -10 6 0 11 5 11 10 0 6 -2 10 -4 10 -3
0 -8 -4 -11 -10z"/>
<path d="M10595 6100 c-3 -5 -1 -10 4 -10 6 0 11 5 11 10 0 6 -2 10 -4 10 -3
0 -8 -4 -11 -10z"/>
<path d="M10316 5723 c-6 -14 -5 -15 5 -6 7 7 10 15 7 18 -3 3 -9 -2 -12 -12z"/>
<path d="M9629 5493 c-13 -16 -12 -17 4 -4 16 13 21 21 13 21 -2 0 -10 -8 -17
-17z"/>
<path d="M10120 5463 c0 -4 -16 -25 -36 -46 -20 -21 -34 -41 -31 -44 6 -5 23
10 65 58 15 17 20 29 13 34 -6 3 -11 3 -11 -2z"/>
<path d="M9540 5384 c0 -8 5 -12 10 -9 6 3 10 10 10 16 0 5 -4 9 -10 9 -5 0
-10 -7 -10 -16z"/>
<path d="M9504 5339 c-19 -22 -19 -22 4 -8 12 8 22 17 22 21 0 12 -6 9 -26
-13z"/>
<path d="M10016 5328 c-9 -12 -16 -26 -16 -31 0 -13 29 12 41 35 14 26 -6 23
-25 -4z"/>
<path d="M9950 5245 c0 -8 5 -15 10 -15 6 0 10 7 10 15 0 8 -4 15 -10 15 -5 0
-10 -7 -10 -15z"/>
<path d="M9402 5207 c-25 -27 -28 -39 -8 -31 11 4 41 54 33 54 -2 0 -13 -10
-25 -23z"/>
<path d="M17960 3731 c0 -12 29 -35 36 -28 11 10 -5 37 -21 37 -8 0 -15 -4
-15 -9z"/>
</g>
</svg>
